<svg width="20" height="21" viewBox="0 0 20 21" fill="none" xmlns="http://www.w3.org/2000/svg">
<path d="M1.66797 5.66992L7.42882 8.93406C9.55264 10.1374 10.45 10.1374 12.5738 8.93406L18.3346 5.66992" stroke="white" stroke-width="1.5" stroke-linejoin="round"/>
<path d="M1.68111 11.8999C1.73559 14.4546 1.76283 15.7318 2.70544 16.6781C3.64804 17.6242 4.95991 17.6572 7.58366 17.7231C9.20072 17.7637 10.8019 17.7637 12.419 17.7231C15.0427 17.6572 16.3546 17.6242 17.2972 16.6781C18.2398 15.7318 18.2671 14.4546 18.3215 11.8999C18.3391 11.0785 18.3391 10.262 18.3215 9.44058C18.2671 6.88596 18.2398 5.60866 17.2972 4.66246C16.3546 3.71627 15.0427 3.68332 12.419 3.61739C10.8019 3.57676 9.20072 3.57676 7.58365 3.61738C4.95991 3.6833 3.64804 3.71626 2.70543 4.66246C1.76282 5.60865 1.73559 6.88596 1.6811 9.44058C1.66359 10.262 1.66359 11.0785 1.68111 11.8999Z" stroke="white" stroke-width="1.5" stroke-linejoin="round"/>
</svg>
