<svg width="24" height="24" viewBox="0 0 24 24" fill="none" xmlns="http://www.w3.org/2000/svg">
<path d="M12.5 2.01228C12.3344 2.00413 12.1677 2 12 2C6.47715 2 2 6.47715 2 12C2 17.5228 6.47715 22 12 22C17.5228 22 22 17.5228 22 12C22 11.1368 21.8906 10.299 21.685 9.5" stroke="#7D7D8A" stroke-width="1.5" stroke-linecap="round" stroke-linejoin="round"/>
<path d="M8 15C8.91212 16.2144 10.3643 17 12 17C13.6357 17 15.0879 16.2144 16 15" stroke="#7D7D8A" stroke-width="1.5" stroke-linecap="round" stroke-linejoin="round"/>
<path d="M10 9.5H8.70711C8.25435 9.5 7.82014 9.67986 7.5 10M14 9.5H15.2929C15.7456 9.5 16.1799 9.67986 16.5 10" stroke="#7D7D8A" stroke-width="1.5" stroke-linecap="round" stroke-linejoin="round"/>
<path d="M15.8881 2.33113C16.8267 1.78283 17.6459 2.00379 18.138 2.35575C18.3398 2.50007 18.4406 2.57223 18.5 2.57223C18.5594 2.57223 18.6602 2.50007 18.862 2.35575C19.3541 2.00379 20.1733 1.78283 21.1119 2.33113C22.3437 3.05073 22.6224 5.4247 19.7812 7.42753C19.24 7.80901 18.9694 7.99975 18.5 7.99975C18.0306 7.99975 17.76 7.80901 17.2188 7.42753C14.3776 5.4247 14.6563 3.05073 15.8881 2.33113Z" stroke="#7D7D8A" stroke-width="1.5" stroke-linecap="round"/>
</svg>
