<svg width="20" height="21" viewBox="0 0 20 21" fill="none" xmlns="http://www.w3.org/2000/svg">
<path d="M3.14932 10.6222C2.3593 9.24467 1.97784 8.11982 1.74783 6.97959C1.40765 5.29323 2.18614 3.64592 3.47578 2.59481C4.02084 2.15057 4.64566 2.30235 4.96797 2.88058L5.69562 4.18601C6.27238 5.22072 6.56075 5.73807 6.50355 6.28657C6.44636 6.83507 6.05744 7.2818 5.27961 8.17526L3.14932 10.6222ZM3.14932 10.6222C4.74839 13.4105 7.25783 15.9213 10.0493 17.5223M10.0493 17.5223C11.4269 18.3123 12.5517 18.6937 13.692 18.9237C15.3783 19.2639 17.0256 18.4854 18.0767 17.1958C18.521 16.6508 18.3692 16.0259 17.791 15.7036L16.4855 14.9759C15.4508 14.3992 14.9335 14.1108 14.385 14.168C13.8365 14.2252 13.3897 14.6141 12.4963 15.3919L10.0493 17.5223Z" stroke="white" stroke-width="1.5" stroke-linejoin="round"/>
</svg>
